# xmcd CD database file
#
# Track frame offsets:
#	150
#	23916
#	38697
#	51662
#	70853
#	95496
#	123887
#	137447
#	160388
#	184477
#	202422
#	219332
#	252312
#	278930
#	309760
#
# Disc length: 4360 seconds
#
# Revision: 2
# Processed by: cddbd v1.5.1PL0 Copyright (c) Steve Scherf et al.
# Submitted via: CDex 1.51
#
DISCID=e011060f
DTITLE=Sads - GREATEST HITS  -BEST OF 5 YEARS-
DYEAR=2003
DGENRE=Rock
TTITLE0=TOKYO
TTITLE1=SANDY
TTITLE2=CRISIS
TTITLE3=赤裸々
TTITLE4=忘却の空
TTITLE5=ストロベリー
TTITLE6=NIGHTMARE
TTITLE7=FINALE
TTITLE8=ポルノ・スター
TTITLE9=ロザリオと薔薇
TTITLE10=HONEY
TTITLE11=Sherry
TTITLE12=Masquerade
TTITLE13=楽園
TTITLE14=HAPPY
EXTD=YEAR: 2003
EXTT0=
EXTT1=
EXTT2=
EXTT3=
EXTT4=
EXTT5=
EXTT6=
EXTT7=
EXTT8=
EXTT9=
EXTT10=
EXTT11=
EXTT12=
EXTT13=
EXTT14=
PLAYORDER=
